<svg width="24" height="24" viewBox="0 0 24 24" fill="none" xmlns="http://www.w3.org/2000/svg">
<path d="M12 8.50004C11.0718 8.50004 10.1815 8.86879 9.52517 9.52517C8.86879 10.1815 8.50004 11.0718 8.50004 12C8.50004 12.9283 8.86879 13.8185 9.52517 14.4749C10.1815 15.1313 11.0718 15.5 12 15.5C12.9283 15.5 13.8185 15.1313 14.4749 14.4749C15.1313 13.8185 15.5 12.9283 15.5 12C15.5 11.0718 15.1313 10.1815 14.4749 9.52517C13.8185 8.86879 12.9283 8.50004 12 8.50004ZM12 6.16671C13.5471 6.16671 15.0309 6.78129 16.1248 7.87525C17.2188 8.96921 17.8334 10.4529 17.8334 12C17.8334 13.5471 17.2188 15.0309 16.1248 16.1248C15.0309 17.2188 13.5471 17.8334 12 17.8334C10.4529 17.8334 8.96921 17.2188 7.87525 16.1248C6.78129 15.0309 6.16671 13.5471 6.16671 12C6.16671 10.4529 6.78129 8.96921 7.87525 7.87525C8.96921 6.78129 10.4529 6.16671 12 6.16671ZM19.5834 5.87504C19.5834 6.26181 19.4297 6.63275 19.1562 6.90624C18.8827 7.17973 18.5118 7.33337 18.125 7.33337C17.7383 7.33337 17.3673 7.17973 17.0938 6.90624C16.8204 6.63275 16.6667 6.26181 16.6667 5.87504C16.6667 5.48827 16.8204 5.11733 17.0938 4.84384C17.3673 4.57035 17.7383 4.41671 18.125 4.41671C18.5118 4.41671 18.8827 4.57035 19.1562 4.84384C19.4297 5.11733 19.5834 5.48827 19.5834 5.87504ZM12 2.66671C9.11371 2.66671 8.64237 2.67487 7.29954 2.73437C6.38487 2.77754 5.77121 2.90004 5.20187 3.12171C4.69554 3.31771 4.33037 3.55221 3.94187 3.94187C3.57672 4.29467 3.29595 4.72539 3.12054 5.20187C2.89887 5.77354 2.77637 6.38604 2.73437 7.29954C2.67371 8.58754 2.66671 9.03787 2.66671 12C2.66671 14.8864 2.67487 15.3577 2.73437 16.7005C2.77754 17.614 2.90004 18.2289 3.12054 18.797C3.31887 19.3045 3.55221 19.6697 3.93954 20.057C4.33271 20.449 4.69787 20.6835 5.19954 20.8772C5.77587 21.1 6.38954 21.2237 7.29954 21.2657C8.58754 21.3264 9.03787 21.3334 12 21.3334C14.8864 21.3334 15.3577 21.3252 16.7005 21.2657C17.6129 21.2225 18.2277 21.1 18.797 20.8795C19.3022 20.6824 19.6697 20.4479 20.057 20.0605C20.4502 19.6674 20.6847 19.3022 20.8784 18.8005C21.1 18.2254 21.2237 17.6105 21.2657 16.7005C21.3264 15.4125 21.3334 14.9622 21.3334 12C21.3334 9.11371 21.3252 8.64237 21.2657 7.29954C21.2225 6.38721 21.1 5.77121 20.8784 5.20187C20.7025 4.72588 20.4223 4.29533 20.0582 3.94187C19.7056 3.57653 19.2748 3.29574 18.7982 3.12054C18.2265 2.89887 17.6129 2.77637 16.7005 2.73437C15.4125 2.67371 14.9622 2.66671 12 2.66671ZM12 0.333374C15.1699 0.333374 15.5654 0.345041 16.809 0.403374C18.0515 0.461707 18.8974 0.656541 19.6417 0.945874C20.4117 1.24221 21.0604 1.64354 21.709 2.29104C22.3023 2.87425 22.7613 3.57973 23.0542 4.35837C23.3424 5.10154 23.5384 5.94854 23.5967 7.19104C23.6515 8.43471 23.6667 8.83021 23.6667 12C23.6667 15.1699 23.655 15.5654 23.5967 16.809C23.5384 18.0515 23.3424 18.8974 23.0542 19.6417C22.7622 20.4208 22.303 21.1264 21.709 21.709C21.1257 22.3021 20.4202 22.7611 19.6417 23.0542C18.8985 23.3424 18.0515 23.5384 16.809 23.5967C15.5654 23.6515 15.1699 23.6667 12 23.6667C8.83021 23.6667 8.43471 23.655 7.19104 23.5967C5.94854 23.5384 5.10271 23.3424 4.35837 23.0542C3.57942 22.7619 2.87382 22.3028 2.29104 21.709C1.69768 21.1259 1.23863 20.4204 0.945874 19.6417C0.656541 18.8985 0.461707 18.0515 0.403374 16.809C0.348541 15.5654 0.333374 15.1699 0.333374 12C0.333374 8.83021 0.345041 8.43471 0.403374 7.19104C0.461707 5.94737 0.656541 5.10271 0.945874 4.35837C1.23782 3.57925 1.69698 2.87358 2.29104 2.29104C2.87399 1.69748 3.57954 1.23839 4.35837 0.945874C5.10271 0.656541 5.94737 0.461707 7.19104 0.403374C8.43471 0.348541 8.83021 0.333374 12 0.333374Z" fill="black"/>
</svg>
