<svg width="28" height="28" viewBox="0 0 28 28" fill="none" xmlns="http://www.w3.org/2000/svg">
<g clip-path="url(#clip0_2402_108)">
<path d="M16.3333 22.1667H22.1667V5.83333H5.83333V22.1667H14V16.3333H11.6667V14H14V12.0703C14 10.5105 14.1633 9.94467 14.4667 9.37417C14.7655 8.80972 15.2273 8.3483 15.792 8.05C16.2377 7.81083 16.7918 7.66733 17.7602 7.6055C18.144 7.581 18.641 7.61133 19.2512 7.69883V9.9155H18.6667C17.5968 9.9155 17.1547 9.96567 16.891 10.1068C16.7337 10.1877 16.6056 10.3158 16.5247 10.4732C16.3847 10.7368 16.3333 10.9982 16.3333 12.0692V14H19.25L18.6667 16.3333H16.3333V22.1667ZM4.66667 3.5H23.3333C23.6428 3.5 23.9395 3.62292 24.1583 3.84171C24.3771 4.0605 24.5 4.35725 24.5 4.66667V23.3333C24.5 23.6428 24.3771 23.9395 24.1583 24.1583C23.9395 24.3771 23.6428 24.5 23.3333 24.5H4.66667C4.35725 24.5 4.0605 24.3771 3.84171 24.1583C3.62292 23.9395 3.5 23.6428 3.5 23.3333V4.66667C3.5 4.35725 3.62292 4.0605 3.84171 3.84171C4.0605 3.62292 4.35725 3.5 4.66667 3.5Z" fill="black"/>
</g>
<defs>
<clipPath id="clip0_2402_108">
<rect width="28" height="28" fill="white"/>
</clipPath>
</defs>
</svg>
