<svg width="121" height="24" viewBox="0 0 121 24" fill="none" xmlns="http://www.w3.org/2000/svg">
<g clip-path="url(#clip0_2370_46)">
<path d="M18.531 16.617L22.814 20.899L21.399 22.314L17.117 18.031C15.5237 19.3082 13.542 20.0029 11.5 20C6.532 20 2.5 15.968 2.5 11C2.5 6.032 6.532 2 11.5 2C16.468 2 20.5 6.032 20.5 11C20.5029 13.042 19.8082 15.0237 18.531 16.617ZM16.525 15.875C17.7941 14.5699 18.5029 12.8204 18.5 11C18.5 7.132 15.367 4 11.5 4C7.632 4 4.5 7.132 4.5 11C4.5 14.867 7.632 18 11.5 18C13.3204 18.0029 15.0699 17.2941 16.375 16.025L16.525 15.875Z" fill="black"/>
</g>
<g clip-path="url(#clip1_2370_46)">
<path d="M55.5 8V6C55.5 4.67392 56.0268 3.40215 56.9645 2.46447C57.9021 1.52678 59.1739 1 60.5 1C61.8261 1 63.0979 1.52678 64.0355 2.46447C64.9732 3.40215 65.5 4.67392 65.5 6V8H68.5C68.7652 8 69.0196 8.10536 69.2071 8.29289C69.3946 8.48043 69.5 8.73478 69.5 9V21C69.5 21.2652 69.3946 21.5196 69.2071 21.7071C69.0196 21.8946 68.7652 22 68.5 22H52.5C52.2348 22 51.9804 21.8946 51.7929 21.7071C51.6054 21.5196 51.5 21.2652 51.5 21V9C51.5 8.73478 51.6054 8.48043 51.7929 8.29289C51.9804 8.10536 52.2348 8 52.5 8H55.5ZM55.5 10H53.5V20H67.5V10H65.5V12H63.5V10H57.5V12H55.5V10ZM57.5 8H63.5V6C63.5 5.20435 63.1839 4.44129 62.6213 3.87868C62.0587 3.31607 61.2956 3 60.5 3C59.7044 3 58.9413 3.31607 58.3787 3.87868C57.8161 4.44129 57.5 5.20435 57.5 6V8Z" fill="black"/>
</g>
<g clip-path="url(#clip2_2370_46)">
<path d="M100.5 22C100.5 19.8783 101.343 17.8434 102.843 16.3431C104.343 14.8429 106.378 14 108.5 14C110.622 14 112.657 14.8429 114.157 16.3431C115.657 17.8434 116.5 19.8783 116.5 22H114.5C114.5 20.4087 113.868 18.8826 112.743 17.7574C111.617 16.6321 110.091 16 108.5 16C106.909 16 105.383 16.6321 104.257 17.7574C103.132 18.8826 102.5 20.4087 102.5 22H100.5ZM108.5 13C105.185 13 102.5 10.315 102.5 7C102.5 3.685 105.185 1 108.5 1C111.815 1 114.5 3.685 114.5 7C114.5 10.315 111.815 13 108.5 13ZM108.5 11C110.71 11 112.5 9.21 112.5 7C112.5 4.79 110.71 3 108.5 3C106.29 3 104.5 4.79 104.5 7C104.5 9.21 106.29 11 108.5 11Z" fill="black"/>
</g>
<defs>
<clipPath id="clip0_2370_46">
<rect width="24" height="24" fill="white" transform="translate(0.5)"/>
</clipPath>
<clipPath id="clip1_2370_46">
<rect width="24" height="24" fill="white" transform="translate(48.5)"/>
</clipPath>
<clipPath id="clip2_2370_46">
<rect width="24" height="24" fill="white" transform="translate(96.5)"/>
</clipPath>
</defs>
</svg>
