<svg width="25" height="24" viewBox="0 0 25 24" fill="none" xmlns="http://www.w3.org/2000/svg">
<g clip-path="url(#clip0_2435_50)">
<path d="M7.5 8V6C7.5 4.67392 8.02678 3.40215 8.96447 2.46447C9.90215 1.52678 11.1739 1 12.5 1C13.8261 1 15.0979 1.52678 16.0355 2.46447C16.9732 3.40215 17.5 4.67392 17.5 6V8H20.5C20.7652 8 21.0196 8.10536 21.2071 8.29289C21.3946 8.48043 21.5 8.73478 21.5 9V21C21.5 21.2652 21.3946 21.5196 21.2071 21.7071C21.0196 21.8946 20.7652 22 20.5 22H4.5C4.23478 22 3.98043 21.8946 3.79289 21.7071C3.60536 21.5196 3.5 21.2652 3.5 21V9C3.5 8.73478 3.60536 8.48043 3.79289 8.29289C3.98043 8.10536 4.23478 8 4.5 8H7.5ZM7.5 10H5.5V20H19.5V10H17.5V12H15.5V10H9.5V12H7.5V10ZM9.5 8H15.5V6C15.5 5.20435 15.1839 4.44129 14.6213 3.87868C14.0587 3.31607 13.2956 3 12.5 3C11.7044 3 10.9413 3.31607 10.3787 3.87868C9.81607 4.44129 9.5 5.20435 9.5 6V8Z" fill="black"/>
</g>
<defs>
<clipPath id="clip0_2435_50">
<rect width="24" height="24" fill="white" transform="translate(0.5)"/>
</clipPath>
</defs>
</svg>
